<svg xmlns="http://www.w3.org/2000/svg" width="231.437" height="44.527" viewBox="0 0 231.437 44.527">
  <g id="Grupo_71"
      transform="translate(-1459.782 22.769)">
    <g id="Grupo_1"
        transform="translate(-2155.684 308.318)">
      <path id="Subtração_14"
          d="M51.352,19.108a21.73,21.73,0,0,1-6.479-.885,12.859,12.859,0,0,1-4.788-2.655,11.085,11.085,0,0,1-2.956-4.358,16.863,16.863,0,0,1-.986-5.994V.492C39.2-.3,42.27-1,45.274-1.586V4.679a9.238,9.238,0,0,0,1.428,5.64c.948,1.231,2.512,1.855,4.65,1.855a5.694,5.694,0,0,0,4.627-1.782c.98-1.182,1.477-3.1,1.477-5.713V-3.38c1.421-.141,2.843-.258,4.228-.347,1.63-.033,3.28-.055,4.9-.063V5.192a17.009,17.009,0,0,1-.962,5.936,11.374,11.374,0,0,1-2.884,4.379,12.317,12.317,0,0,1-4.77,2.7A22.106,22.106,0,0,1,51.352,19.108Zm44.759-.757H71.843V-3.777c3.043.033,6.115.111,9.131.231V11.417H96.111V18.35Zm-73.575,0H13.015L10.03,9.671c2.593-1.144,5.219-2.232,7.8-3.234l.063.2.081-.251C21.265,5.11,24.586,3.938,27.85,2.9L22.536,18.35ZM7.077,1.083h0L.515-18H9.987L15.042-2.259C12.409-1.227,9.73-.1,7.078,1.082ZM21.521-4.652v0L25.807-18h9.229L31.515-7.761c-3.3.908-6.66,1.953-9.992,3.108Zm14.622-4.3h0V-18h9.131v7.154c-3,.518-6.076,1.154-9.129,1.891Zm44.832-3.236h0c-3.1-.255-6.174-.424-9.13-.5V-18h9.131v5.807Zm-23.519-.17h0V-18h9.131v5.258c-3.079.027-6.151.155-9.13.381Z" transform="translate(3614.951 -306.365)" fill="#fafafa"/>
      <path id="Subtração_15" d="M129.322-1.478h-9.155l4.088-12.1a234.082,234.082,0,0,0,27.011,1.974L154.688-1.48h-9.4L143.019-8.9H131.593l-2.271,7.421Zm60.848,0H179.037l-8.129-10.7c3.278-.277,6.6-.663,9.886-1.15L190.169-1.48Zm-24.536,0h-9.083V-11.62l.434-.008.93,0c2.556,0,5.153-.065,7.719-.194V-1.48ZM150.19-14.794h0c-4.42-.013-8.908-.242-13.72-.7h4.548L137.306-27.48l-3.622,11.7c-2.668-.3-5.465-.665-8.315-1.1l7.079-20.955h9.96l7.782,23.037Zm6.361-.137h0v-22.9h14.624a32.324,32.324,0,0,1,5.274.379,11.262,11.262,0,0,1,4.15,1.575,9.546,9.546,0,0,1,3.1,3.162,9.4,9.4,0,0,1,1.147,4.87,11.35,11.35,0,0,1-1.879,6.775,13.013,13.013,0,0,1-4.155,3.677,169.8,169.8,0,0,1-22.26,2.464Zm9.083-16.211h0v9.79h2.612a19.261,19.261,0,0,0,3.235-.232,4.83,4.83,0,0,0,2.259-.988,4.3,4.3,0,0,0,1.306-1.636,6.174,6.174,0,0,0,.428-2.49,4.977,4.977,0,0,0-.526-2.355A3.471,3.471,0,0,0,173.2-30.58a6.312,6.312,0,0,0-1.9-.464c-.694-.065-1.573-.1-2.613-.1h-3.051Z" transform="translate(3656.733 -285.083)" fill="#fafafa"/>
    </g>
    <g id="Grupo_70">
      <path id="Subtração_16" d="M37.872,17.574H7.1a15.755,15.755,0,0,1-3.7-.884A10.793,10.793,0,0,1,.859,14.757c-.262-.258-.412-.39-.5-.47a.831.831,0,0,1-.264-.344l-.008-.015a.57.57,0,0,1,0-.607C.116,13.244,3.153,5.6,4.947,3.267s5.98-3.2,6.022-3.2l11.6.221C22.632.28,28.963,0,33.076,0c1.127,0,2,.021,2.585.062a7.7,7.7,0,0,1,4.917,2.1A20.137,20.137,0,0,1,44.8,9.1a34.279,34.279,0,0,1,1.357,4.217v.607a1.472,1.472,0,0,1-.5.829c-.081.071-.165.156-.261.255a6.272,6.272,0,0,1-2.666,1.678A21.623,21.623,0,0,1,37.872,17.574Zm-11-9.171a1,1,0,0,0-.468.117L18.46,12.746a1,1,0,1,0,.939,1.766l7.947-4.226A1,1,0,0,0,26.874,8.4Zm1.964-5.069a1,1,0,0,0-.484.126L20.482,7.823a1,1,0,1,0,.97,1.749l7.871-4.363a1,1,0,0,0-.486-1.875Z" transform="translate(1563.535 -21.758)" fill="#fff"/>
      <path id="Caminho_81" d="M-223.475,355.653l11.6.221s9.932-.443,13.092-.221a7.666,7.666,0,0,1,4.917,2.1c3.821,3.634,5.579,11.159,5.579,11.159v.608a1.453,1.453,0,0,1-.5.829,6.717,6.717,0,0,1-2.928,1.933,21.423,21.423,0,0,1-4.861.884h-30.77a15.661,15.661,0,0,1-3.7-.884,10.692,10.692,0,0,1-2.541-1.933c-.7-.691-.58-.47-.773-.829a.564.564,0,0,1,0-.608s3.038-7.679,4.861-10.054S-223.475,355.653-223.475,355.653Z" transform="translate(1798.979 -377.348)" fill="none" stroke="#fff" stroke-width="2"/>
      <g id="Grupo_11" transform="translate(1797 -381.348)">
        <path id="Caminho_77" d="M-235.864,374.964a8.579,8.579,0,0,0-2.762,4.352v7.016a7.08,7.08,0,0,0,2.431,3.812,10.445,10.445,0,0,0,3.756,1.823s37.178.055,40.05,0a7.682,7.682,0,0,0,4.237-1.823,7.772,7.772,0,0,0,2.392-3.812c.166-.713,0-6.629,0-6.629a7.722,7.722,0,0,0-3.11-4.738c-1.277-.774-12.608,3.259-24.417,3.462C-224.32,378.616-235.864,374.964-235.864,374.964Z" transform="translate(3.097 -1.157)" fill="none" stroke="#fff" stroke-width="2"/>
        <g id="Grupo_3" transform="translate(-195.947 380.338)">
          <path id="Subtração_18" d="M-1593.431,6.061c-.877,0-4.821-.621-6.305-.854l-.463-.072a1.06,1.06,0,0,1-.755-.607l-.092-.469c-.046-.245.161-.91,1.1-1.4a23.61,23.61,0,0,1,4.334-1.358c.342-.084.636-.156.827-.209a2.139,2.139,0,0,1,.569-.085,1.154,1.154,0,0,1,1.09.634c.005.025.532,2.5.7,3.2a1.009,1.009,0,0,1-.859,1.2A.616.616,0,0,1-1593.431,6.061Zm-.876-4a4.689,4.689,0,0,0-1.1.268l-4.255,1.056a.544.544,0,0,0-.417.536c.012.435.574.445.58.446l4.97.588a4.357,4.357,0,0,0,.617.056.807.807,0,0,0,.355-.056.35.35,0,0,0,.173-.379l-.446-2.246a.577.577,0,0,0-.357-.253A.415.415,0,0,0-1594.308,2.061Z" transform="translate(1601.053 -1.01)" fill="#fff"/>
        </g>
        <g id="Grupo_4" transform="translate(-231.062 380.338)">
          <path id="Subtração_17" d="M-1564.905,6.061a.618.618,0,0,1-.143-.011,1.01,1.01,0,0,1-.859-1.2c.169-.714.693-3.182.7-3.2a1.143,1.143,0,0,1,1.09-.634,2.139,2.139,0,0,1,.569.085c.192.054.488.126.83.21a23.61,23.61,0,0,1,4.332,1.358c.936.486,1.144,1.151,1.1,1.4l-.092.469a1.059,1.059,0,0,1-.755.607l-.469.073C-1560.088,5.441-1564.028,6.061-1564.905,6.061Zm.876-4a.415.415,0,0,0-.122.015.579.579,0,0,0-.357.253l-.446,2.246a.355.355,0,0,0,.173.379.807.807,0,0,0,.355.056,4.37,4.37,0,0,0,.617-.056l4.97-.588c.006,0,.569-.009.58-.446a.544.544,0,0,0-.417-.536l-4.255-1.056A4.7,4.7,0,0,0-1564.029,2.061Z" transform="translate(1565.938 -1.01)" fill="#fff"/>
        </g>
        <g id="Grupo_5" transform="translate(-216.758 381.132)">
          <rect id="Retângulo_1" width="13.038" height="4.834" transform="translate(1.428 0.732)" fill="none"/>
          <g id="Retângulo_2" transform="translate(0 0)" fill="none" stroke="#fff" stroke-width="2">
            <rect width="15.162" height="6.519" rx="1" stroke="none"/>
            <rect x="1" y="1" width="13.162" height="4.519" fill="none"/>
          </g>
        </g>
        <g id="Grupo_6" transform="translate(-187.46 368.68)">
          <rect id="Retângulo_3" width="5.86" height="3.662" transform="translate(0.732 0.732)" fill="none"/>
          <g id="Retângulo_4" transform="translate(0)" fill="none" stroke="#fff" stroke-width="1">
            <rect width="7.325" height="5.127" rx="1" stroke="none"/>
            <rect x="0.5" y="0.5" width="6.325" height="4.127" rx="0.5" fill="none"/>
          </g>
        </g>
        <g id="Grupo_7" transform="translate(-238 368.68)">
          <rect id="Retângulo_3-2" width="5.86" height="3.662" transform="translate(0.732 0.732)" fill="none"/>
          <g id="Retângulo_4-2" fill="none" stroke="#fff" stroke-width="1">
            <rect width="7.325" height="5.127" rx="1" stroke="none"/>
            <rect x="0.5" y="0.5" width="6.325" height="4.127" rx="0.5" fill="none"/>
          </g>
        </g>
        <path id="Caminho_78" d="M-238.75,390.816c-.231,2.269.277,6.132,1.358,7.8a7.72,7.72,0,0,0,4.74,3.088h40.144s3.591-.377,5.314-2.8,1.433-5.759,1.433-8.129a25.66,25.66,0,0,1-1.7,2.635,7.953,7.953,0,0,1-4.33,2.335c-4.957,1.175-13.489.342-20.754.5-4.159.092-8.86-.036-13.214,0-2.312.02-4.576.446-6.535,0C-236.782,395.224-238.75,390.816-238.75,390.816Z" transform="translate(3.145 -5.403)" fill="none" stroke="#fff" stroke-width="2"/>
        <g id="Grupo_8" transform="translate(-230.675 395.781)">
          <path id="Retângulo_5" d="M0,0H8.79a0,0,0,0,1,0,0V4.592a2,2,0,0,1-2,2H2a2,2,0,0,1-2-2V0A0,0,0,0,1,0,0Z" transform="translate(0.732)" fill="none"/>
          <g id="Retângulo_6" transform="translate(0)" fill="none" stroke="#fff" stroke-width="2">
            <path d="M0,0H10.255a0,0,0,0,1,0,0V3.325a4,4,0,0,1-4,4H4a4,4,0,0,1-4-4V0A0,0,0,0,1,0,0Z" stroke="none"/>
            <path d="M2,1H8.255a1,1,0,0,1,1,1V3.325a3,3,0,0,1-3,3H4a3,3,0,0,1-3-3V2A1,1,0,0,1,2,1Z" fill="none"/>
          </g>
        </g>
        <g id="Grupo_9" transform="translate(-197.714 395.781)">
          <path id="Retângulo_5-2" d="M0,0H8.79a0,0,0,0,1,0,0V3.86a2,2,0,0,1-2,2H2a2,2,0,0,1-2-2V0A0,0,0,0,1,0,0Z" transform="translate(0.732 0.732)" fill="none"/>
          <g id="Retângulo_6-2" fill="none" stroke="#fff" stroke-width="2">
            <path d="M0,0H10.255a0,0,0,0,1,0,0V3.325a4,4,0,0,1-4,4H4a4,4,0,0,1-4-4V0A0,0,0,0,1,0,0Z" stroke="none"/>
            <path d="M2,1H8.255a1,1,0,0,1,1,1V3.325a3,3,0,0,1-3,3H4a3,3,0,0,1-3-3V2A1,1,0,0,1,2,1Z" fill="none"/>
          </g>
        </g>
        <path id="Caminho_79" d="M-304.254,372.947" transform="translate(98.886 -4.416)" fill="none" stroke="#333841" stroke-linecap="round" stroke-width="2"/>
      </g>
    </g>
  </g>
</svg>
